GREETZ: UnDeaD - BadGirl2k9 - virusofsaten - foxyb - WICCYWOLF - lizzymwah1

VISIT http://www.seedboxworld.biz/ for all ur seedbox needs!

RELEASE NAME: Salt.2010.R5.LiNE.XviD-SDTeam
RELEASED BY: UnDeaD & BadGirl2k9
SIZE: 384 MB

LANGUAGE: English
IMDb: http://www.imdb.com/title/tt0944835/

PLOT: Evelyn Salt is a CIA agent and highly respected by all, 
including her boss, Ted Winter. Out of the blue, a Russian spy 
walks into their offices and offers a vital piece of information: 
the President of Russia will be assassinated during his forthcoming 
visit to New York City to attend the funeral of the recently deceased 
U.S. Vice President. The name of the assassin: Evelyn Salt. Concerned 
about the safety of her husband, who she cannot contact, she goes on 
the run. Winter refuses to accept that she is a mole or a double agent 
but her actions begin to raise doubts. Just who is Evelyn Salt and 
what is she planning? 

SCREENS: 
http://i658.photobucket.com/albums/uu309/BadGirl2k9/screens/vlcsnap-2010-08-18-02h23m22s32.png 
http://i658.photobucket.com/albums/uu309/BadGirl2k9/screens/vlcsnap-2010-08-18-02h23m34s157.png 
http://i658.photobucket.com/albums/uu309/BadGirl2k9/screens/vlcsnap-2010-08-18-02h23m46s10.png

General
Format                           : AVI
Format/Info                      : Audio Video Interleave
File size                        : 384 MiB
Duration                         : 1h 34mn
Overall bit rate                 : 572 Kbps
Writing application              : MEncoder SVN-r22963
Writing library                  : MPlayer

Video
ID                               : 0
Format                           : MPEG-4 Visual
Format profile                   : Simple@L3
Format settings, BVOP            : No
Format settings, QPel            : No
Format settings, GMC             : No warppoints
Format settings, Matrix          : Default (H.263)
Codec ID                         : XVID
Codec ID/Hint                    : XviD
Duration                         : 1h 34mn
Bit rate                         : 496 Kbps
Width                            : 512 pixels
Height                           : 224 pixels
Display aspect ratio             : 2.25:1
Frame rate                       : 20.000 fps
Resolution                       : 8 bits
Colorimetry                      : 4:2:0
Scan type                        : Progressive
Bits/(Pixel*Frame)               : 0.216
Stream size                      : 334 MiB (87%)
Writing library                  : XviD 1.1.2 (UTC 2006-11-01)

Audio
ID                               : 1
Format                           : MPEG Audio
Format version                   : Version 1
Format profile                   : Layer 3
Codec ID                         : 55
Codec ID/Hint                    : MP3
Duration                         : 1h 34mn
Bit rate mode                    : Constant
Bit rate                         : 64.0 Kbps
Channel(s)                       : 2 channels
Sampling rate                    : 44.1 KHz
Stream size                      : 43.0 MiB (11%)
Alignment                        : Aligned on interleaves
Interleave, duration             : 26 ms (0.52 video frame)
Interleave, preload duration     : 522 ms


GROUP NOTE: Big thanks to seedboxworld.biz for the seedbox!
